<svg id="language-24px" xmlns="http://www.w3.org/2000/svg" width="24" height="24" viewBox="0 0 24 24">
  <path id="Path_14008" data-name="Path 14008" d="M0,0H24V24H0Z" fill="none"/>
  <path id="Path_14009" data-name="Path 14009" d="M5.08,8H8.03A15.649,15.649,0,0,1,9.41,4.44,7.987,7.987,0,0,0,5.08,8ZM7.5,12a16.515,16.515,0,0,1,.14-2H4.26a7.822,7.822,0,0,0,0,4H7.64a16.515,16.515,0,0,1-.14-2ZM5.08,16a7.987,7.987,0,0,0,4.33,3.56A15.649,15.649,0,0,1,8.03,16ZM12,4.04A14.087,14.087,0,0,0,10.09,8h3.82A14.087,14.087,0,0,0,12,4.04ZM18.92,8a8.03,8.03,0,0,0-4.33-3.56A15.649,15.649,0,0,1,15.97,8ZM12,19.96A14.087,14.087,0,0,0,13.91,16H10.09A14.087,14.087,0,0,0,12,19.96Zm2.59-.4A8.03,8.03,0,0,0,18.92,16H15.97A15.649,15.649,0,0,1,14.59,19.56ZM19.74,10H16.36a16.515,16.515,0,0,1,.14,2,16.515,16.515,0,0,1-.14,2h3.38a7.822,7.822,0,0,0,0-4ZM9.66,10a14.585,14.585,0,0,0-.16,2,14.713,14.713,0,0,0,.16,2h4.68a14.713,14.713,0,0,0,.16-2,14.585,14.585,0,0,0-.16-2Z" fill="#185edf" opacity="0.3"/>
  <path id="Path_14010" data-name="Path 14010" d="M11.99,2A10,10,0,1,0,22,12,10,10,0,0,0,11.99,2Zm6.93,6H15.97a15.649,15.649,0,0,0-1.38-3.56A8.03,8.03,0,0,1,18.92,8ZM12,4.04A14.087,14.087,0,0,1,13.91,8H10.09A14.087,14.087,0,0,1,12,4.04ZM4.26,14a7.822,7.822,0,0,1,0-4H7.64a16.515,16.515,0,0,0-.14,2,16.515,16.515,0,0,0,.14,2Zm.82,2H8.03a15.649,15.649,0,0,0,1.38,3.56A7.987,7.987,0,0,1,5.08,16ZM8.03,8H5.08A7.987,7.987,0,0,1,9.41,4.44,15.649,15.649,0,0,0,8.03,8ZM12,19.96A14.087,14.087,0,0,1,10.09,16h3.82A14.087,14.087,0,0,1,12,19.96ZM14.34,14H9.66a14.713,14.713,0,0,1-.16-2,14.585,14.585,0,0,1,.16-2h4.68a14.585,14.585,0,0,1,.16,2A14.713,14.713,0,0,1,14.34,14Zm.25,5.56A15.649,15.649,0,0,0,15.97,16h2.95A8.03,8.03,0,0,1,14.59,19.56ZM16.36,14a16.515,16.515,0,0,0,.14-2,16.515,16.515,0,0,0-.14-2h3.38a7.822,7.822,0,0,1,0,4Z" fill="#185edf"/>
</svg>
