<svg id="sentiment_satisfied_alt-24px" xmlns="http://www.w3.org/2000/svg" width="24" height="24" viewBox="0 0 24 24">
  <path id="Path_14026" data-name="Path 14026" d="M0,0H24V24H0Z" fill="none"/>
  <path id="Path_14027" data-name="Path 14027" d="M12,4a8,8,0,1,0,8,8A8,8,0,0,0,12,4Zm3.5,4A1.5,1.5,0,1,1,14,9.5,1.5,1.5,0,0,1,15.5,8Zm-7,0A1.5,1.5,0,1,1,7,9.5,1.5,1.5,0,0,1,8.5,8ZM12,17.5A5.5,5.5,0,0,1,6.88,14H8.55a3.976,3.976,0,0,0,6.9,0h1.67A5.5,5.5,0,0,1,12,17.5Z" fill="#7a89a0" opacity="0.3"/>
  <circle id="Ellipse_3569" data-name="Ellipse 3569" cx="1.5" cy="1.5" r="1.5" transform="translate(14 8)" fill="#7a89a0"/>
  <circle id="Ellipse_3570" data-name="Ellipse 3570" cx="1.5" cy="1.5" r="1.5" transform="translate(7 8)" fill="#7a89a0"/>
  <path id="Path_14028" data-name="Path 14028" d="M12,16a4,4,0,0,1-3.45-2H6.88a5.495,5.495,0,0,0,10.24,0H15.45A3.984,3.984,0,0,1,12,16ZM11.99,2A10,10,0,1,0,22,12,10,10,0,0,0,11.99,2ZM12,20a8,8,0,1,1,8-8A8,8,0,0,1,12,20Z" fill="#7a89a0"/>
</svg>
