<svg id="whatsapp_1_" data-name="whatsapp (1)" xmlns="http://www.w3.org/2000/svg" width="22" height="22" viewBox="0 0 22 22">
  <path id="Path_14011" data-name="Path 14011" d="M0,22l1.517-5.5A10.941,10.941,0,0,1,10.962,0,11.05,11.05,0,0,1,22,10.924,11.18,11.18,0,0,1,10.962,22a11.042,11.042,0,0,1-5.348-1.517Z" fill="#ededed"/>
  <path id="Path_14012" data-name="Path 14012" d="M48.159,60.752l.341.19a9.006,9.006,0,0,0,4.741,1.4,9.2,9.2,0,0,0,9.1-9.179,9.1,9.1,0,0,0-18.207,0,9.189,9.189,0,0,0,1.4,4.893l.228.341L44.9,61.586Z" transform="translate(-42.241 -42.241)" fill="#55cd6c"/>
  <path id="Path_14013" data-name="Path 14013" d="M132.178,135.1l-.721-.038a.861.861,0,0,0-.607.228,3.143,3.143,0,0,0-1.062,1.631,4.933,4.933,0,0,0,1.138,3.869,11.5,11.5,0,0,0,6.221,4.514,3.081,3.081,0,0,0,2.579-.3,2.238,2.238,0,0,0,.986-1.441l.114-.531a.381.381,0,0,0-.19-.417l-2.39-1.1a.362.362,0,0,0-.455.114l-.948,1.214a.3.3,0,0,1-.3.076,7.371,7.371,0,0,1-3.983-3.414.286.286,0,0,1,.038-.3l.91-1.024a.467.467,0,0,0,.076-.379l-1.1-2.465a.331.331,0,0,0-.3-.228" transform="translate(-124.136 -129.259)" fill="#fefefe"/>
</svg>
